<?xml version="1.0" encoding="UTF-8" standalone="no"?>
<!-- Created with Inkscape (http://www.inkscape.org/) -->

<svg
   xmlns:dc="http://purl.org/dc/elements/1.1/"
   xmlns:cc="http://creativecommons.org/ns#"
   xmlns:rdf="http://www.w3.org/1999/02/22-rdf-syntax-ns#"
   xmlns:svg="http://www.w3.org/2000/svg"
   xmlns="http://www.w3.org/2000/svg"
   version="1.1"
   width="2400"
   height="1350"
   id="svg2"
   xml:space="preserve"><metadata
     id="metadata8"><rdf:RDF><cc:Work
         rdf:about=""><dc:format>image/svg+xml</dc:format><dc:type
           rdf:resource="http://purl.org/dc/dcmitype/StillImage" /><dc:title></dc:title></cc:Work></rdf:RDF></metadata><defs
     id="defs6"><clipPath
       id="clipPath16"><path
         d="m 0,1080 1920,0 L 1920,0 0,0 0,1080 z"
         id="path18" /></clipPath><clipPath
       id="clipPath28"><path
         d="m 0,1080 1920,0 L 1920,0 0,0 0,1080 z"
         id="path30" /></clipPath><clipPath
       id="clipPath40"><path
         d="m 0,1080 1920,0 L 1920,0 0,0 0,1080 z"
         id="path42" /></clipPath><clipPath
       id="clipPath52"><path
         d="m 0,1080 1920,0 L 1920,0 0,0 0,1080 z"
         id="path54" /></clipPath><clipPath
       id="clipPath64"><path
         d="m 0,1080 1920,0 L 1920,0 0,0 0,1080 z"
         id="path66" /></clipPath><clipPath
       id="clipPath78"><path
         d="m 0,1080 1920,0 L 1920,0 0,0 0,1080 z"
         id="path80" /></clipPath><clipPath
       id="clipPath90"><path
         d="m 0,1080 1920,0 L 1920,0 0,0 0,1080 z"
         id="path92" /></clipPath><clipPath
       id="clipPath102"><path
         d="m 0,1080 1920,0 L 1920,0 0,0 0,1080 z"
         id="path104" /></clipPath><clipPath
       id="clipPath114"><path
         d="m 0,1080 1920,0 L 1920,0 0,0 0,1080 z"
         id="path116" /></clipPath><clipPath
       id="clipPath126"><path
         d="m 0,1080 1920,0 L 1920,0 0,0 0,1080 z"
         id="path128" /></clipPath><clipPath
       id="clipPath138"><path
         d="m 0,1080 1920,0 L 1920,0 0,0 0,1080 z"
         id="path140" /></clipPath><clipPath
       id="clipPath150"><path
         d="m 0,1080 1920,0 L 1920,0 0,0 0,1080 z"
         id="path152" /></clipPath><clipPath
       id="clipPath162"><path
         d="m 0,1080 1920,0 L 1920,0 0,0 0,1080 z"
         id="path164" /></clipPath><clipPath
       id="clipPath174"><path
         d="m 0,1080 1920,0 L 1920,0 0,0 0,1080 z"
         id="path176" /></clipPath></defs><g
     transform="matrix(1.25,0,0,-1.25,0,1350)"
     id="g10"><g
       id="g12"><g
         clip-path="url(#clipPath16)"
         id="g14"><g
           transform="translate(1730.8701,518.127)"
           id="g20"><path
             d="M 0,0 C 2.463,14.166 10.88,23.406 23.814,23.406 36.955,23.406 45.168,13.961 47.016,0 L 0,0 z m 77.403,-11.292 c 0,31.208 -16.838,59.747 -53.589,59.747 -32.03,0 -54.41,-25.871 -54.41,-57.283 l 0,-0.413 c 0,-33.67 24.433,-56.872 57.49,-56.872 19.918,0 34.698,7.802 44.967,20.533 l -17.864,15.809 c -8.625,-8.008 -16.219,-11.292 -26.69,-11.292 -13.962,0 -23.818,7.391 -26.899,21.558 l 76.585,0 c 0.204,2.874 0.41,5.747 0.41,8.213"
             id="path22"
             style="fill:#86cc64;fill-opacity:1;fill-rule:nonzero;stroke:none" /></g></g></g><g
       id="g24"><g
         clip-path="url(#clipPath28)"
         id="g26"><g
           transform="translate(1644.8467,478.9111)"
           id="g32"><path
             d="m 0,0 c -17.037,0 -27.919,13.551 -27.919,30.388 l 0,0.41 c 0,16.221 11.086,29.975 26.69,29.975 11.085,0 18.067,-4.721 25.048,-12.114 L 42.913,69.192 C 32.649,80.689 19.712,87.67 -1.024,87.67 -34.697,87.67 -58.72,61.8 -58.72,30.388 l 0,-0.413 c 0,-31.412 24.229,-56.872 57.285,-56.872 21.97,0 34.288,8.418 44.962,20.121 L 25.254,11.703 C 17.661,4.517 10.475,0 0,0"
             id="path34"
             style="fill:#86cc64;fill-opacity:1;fill-rule:nonzero;stroke:none" /></g></g></g><g
       id="g36"><g
         clip-path="url(#clipPath40)"
         id="g38"><g
           transform="translate(1527.0059,566.5815)"
           id="g44"><path
             d="m 0,0 c -15.807,0 -25.045,-8.419 -32.234,-17.658 l 0,15.604 -31.206,0 0,-110.049 31.206,0 0,61.391 c 0,14.781 7.596,22.377 19.506,22.377 11.91,0 18.887,-7.596 18.887,-22.377 l 0,-61.391 31.208,0 0,71.244 C 37.367,-15.604 23.615,0 0,0"
             id="path46"
             style="fill:#86cc64;fill-opacity:1;fill-rule:nonzero;stroke:none" /></g></g></g><g
       id="g48"><g
         clip-path="url(#clipPath52)"
         id="g50"><g
           transform="translate(1362.9697,518.127)"
           id="g56"><path
             d="M 0,0 C 2.461,14.166 10.88,23.406 23.815,23.406 36.956,23.406 45.168,13.961 47.017,0 L 0,0 z m 23.815,48.455 c -32.031,0 -54.409,-25.871 -54.409,-57.283 l 0,-0.413 c 0,-33.67 24.432,-56.872 57.489,-56.872 19.917,0 34.698,7.802 44.965,20.533 l -17.862,15.809 c -8.624,-8.008 -16.22,-11.292 -26.69,-11.292 -13.962,0 -23.819,7.391 -26.899,21.558 l 76.586,0 c 0.204,2.874 0.407,5.747 0.407,8.213 0,31.208 -16.837,59.747 -53.587,59.747"
             id="path58"
             style="fill:#86cc64;fill-opacity:1;fill-rule:nonzero;stroke:none" /></g></g></g><g
       id="g60"><g
         clip-path="url(#clipPath64)"
         id="g62"><g
           transform="translate(1278.5938,503.1387)"
           id="g68"><path
             d="m 0,0 c 0,-14.783 -7.598,-22.38 -19.506,-22.38 -11.906,0 -18.887,7.597 -18.887,22.38 l 0,61.389 -31.209,0 0,-71.243 c 0,-25.254 13.753,-40.86 37.368,-40.86 15.808,0 25.047,8.417 32.234,17.657 l 0,-15.603 31.205,0 0,110.049 L 0,61.389 0,0 z"
             id="path70"
             style="fill:#86cc64;fill-opacity:1;fill-rule:nonzero;stroke:none" /></g></g></g><path
       d="m 1149.249,454.479 31.209,0 0,149.881 -31.209,0 0,-149.881 z"
       id="path72"
       style="fill:#86cc64;fill-opacity:1;fill-rule:nonzero;stroke:none" /><g
       id="g74"><g
         clip-path="url(#clipPath78)"
         id="g76"><g
           transform="translate(1083.5547,597.1738)"
           id="g82"><path
             d="m 0,0 c -5.749,-5.75 -8.828,-14.578 -8.828,-26.692 l 0,-6.981 -12.933,0 0,-25.664 12.933,0 0,-83.358 31.21,0 0,83.358 24.844,0 0,25.46 -25.254,0 0,4.311 c 0,8.212 4.105,11.908 11.291,11.908 5.336,0 9.652,-1.026 14.167,-2.669 l 0,25.871 C 41.678,7.391 35.11,8.623 25.256,8.623 14.168,8.623 5.75,5.748 0,0"
             id="path84"
             style="fill:#86cc64;fill-opacity:1;fill-rule:nonzero;stroke:none" /></g></g></g><g
       id="g86"><g
         clip-path="url(#clipPath90)"
         id="g88"><g
           transform="translate(1004.9307,566.5815)"
           id="g94"><path
             d="m 0,0 c -15.809,0 -25.049,-8.419 -32.236,-17.658 l 0,15.604 -31.208,0 0,-110.049 31.208,0 0,61.391 c 0,14.781 7.599,22.377 19.507,22.377 11.907,0 18.888,-7.596 18.888,-22.377 l 0,-61.391 31.207,0 0,71.244 C 37.366,-15.604 23.612,0 0,0"
             id="path96"
             style="fill:#176fbc;fill-opacity:1;fill-rule:nonzero;stroke:none" /></g></g></g><g
       id="g98"><g
         clip-path="url(#clipPath102)"
         id="g100"><g
           transform="translate(840.8911,518.127)"
           id="g106"><path
             d="M 0,0 C 2.464,14.166 10.882,23.406 23.817,23.406 36.958,23.406 45.171,13.961 47.019,0 L 0,0 z m 23.817,48.455 c -32.028,0 -54.408,-25.871 -54.408,-57.283 l 0,-0.413 c 0,-33.67 24.433,-56.872 57.488,-56.872 19.916,0 34.699,7.802 44.965,20.533 L 54,-29.771 c -8.624,-8.008 -16.22,-11.292 -26.692,-11.292 -13.961,0 -23.817,7.391 -26.896,21.558 l 76.582,0 c 0.206,2.874 0.412,5.747 0.412,8.213 0,31.208 -16.836,59.747 -53.589,59.747"
             id="path108"
             style="fill:#176fbc;fill-opacity:1;fill-rule:nonzero;stroke:none" /></g></g></g><g
       id="g110"><g
         clip-path="url(#clipPath114)"
         id="g112"><g
           transform="translate(715.0415,518.127)"
           id="g118"><path
             d="M 0,0 C 2.464,14.166 10.882,23.406 23.816,23.406 36.957,23.406 45.17,13.961 47.017,0 L 0,0 z m 23.816,48.455 c -32.029,0 -54.408,-25.871 -54.408,-57.283 l 0,-0.413 c 0,-33.67 24.433,-56.872 57.489,-56.872 19.915,0 34.698,7.802 44.965,20.533 l -17.863,15.809 c -8.624,-8.008 -16.22,-11.292 -26.692,-11.292 -13.962,0 -23.816,7.391 -26.895,21.558 l 76.583,0 c 0.205,2.874 0.409,5.747 0.409,8.213 0,31.208 -16.835,59.747 -53.588,59.747"
             id="path120"
             style="fill:#176fbc;fill-opacity:1;fill-rule:nonzero;stroke:none" /></g></g></g><g
       id="g122"><g
         clip-path="url(#clipPath126)"
         id="g124"><g
           transform="translate(638.2583,542.3535)"
           id="g130"><path
             d="m 0,0 0,22.174 -31.208,0 0,-110.049 31.208,0 0,40.651 c 0,26.282 12.729,38.805 33.467,38.805 l 1.643,0 0,32.647 C 16.631,25.049 6.365,15.194 0,0"
             id="path132"
             style="fill:#176fbc;fill-opacity:1;fill-rule:nonzero;stroke:none" /></g></g></g><g
       id="g134"><g
         clip-path="url(#clipPath138)"
         id="g136"><g
           transform="translate(543.2031,478.9111)"
           id="g142"><path
             d="m 0,0 c -17.042,0 -27.923,13.551 -27.923,30.388 l 0,0.41 c 0,16.221 11.088,29.975 26.692,29.975 11.087,0 18.067,-4.721 25.048,-12.114 L 42.912,69.192 C 32.646,80.689 19.71,87.67 -1.026,87.67 -34.699,87.67 -58.72,61.8 -58.72,30.388 l 0,-0.413 c 0,-31.412 24.227,-56.872 57.284,-56.872 21.969,0 34.287,8.418 44.963,20.121 L 25.254,11.703 C 17.658,4.517 10.472,0 0,0"
             id="path144"
             style="fill:#176fbc;fill-opacity:1;fill-rule:nonzero;stroke:none" /></g></g></g><g
       id="g146"><g
         clip-path="url(#clipPath150)"
         id="g148"><g
           transform="translate(434.187,521.002)"
           id="g154"><path
             d="m 0,0 c -11.908,4.104 -22.38,6.979 -22.38,13.139 l 0,0.41 c 0,4.312 3.902,7.598 11.498,7.598 8.008,0 18.89,-3.903 29.771,-10.267 l 11.908,21.559 c -11.908,8.007 -27.101,12.729 -41.063,12.729 -22.173,0 -40.242,-12.524 -40.242,-34.903 l 0,-0.411 c 0,-21.354 17.452,-28.54 32.851,-33.056 12.114,-3.694 22.79,-5.952 22.79,-12.73 l 0,-0.411 c 0,-4.927 -4.106,-8.213 -13.141,-8.213 -10.265,0 -22.789,4.518 -34.698,13.142 l -13.346,-20.532 c 14.578,-11.497 31.824,-16.631 47.223,-16.631 23.818,0 42.091,11.088 42.091,35.518 l 0,0.413 C 33.262,-12.524 15.399,-5.133 0,0"
             id="path156"
             style="fill:#176fbc;fill-opacity:1;fill-rule:nonzero;stroke:none" /></g></g></g><g
       id="g158"><g
         clip-path="url(#clipPath162)"
         id="g160"><g
           transform="translate(253.4536,533.9756)"
           id="g166"><path
             d="m 0,0 c -10.369,0 -18.764,-8.396 -18.764,-18.763 0,-6.037 2.853,-11.414 7.308,-14.843 -7.904,-24.062 -30.548,-41.431 -57.26,-41.431 -33.28,0 -60.256,26.977 -60.256,60.257 0,33.279 26.976,60.257 60.256,60.257 7.827,0 15.297,-1.512 22.158,-4.232 4.469,4.129 9.437,7.719 14.797,10.694 -10.948,6.082 -23.539,9.551 -36.955,9.551 -42.128,0 -76.27,-34.142 -76.27,-76.27 0,-42.129 34.142,-76.271 76.27,-76.271 13.414,0 26.01,3.477 36.96,9.558 5.349,2.971 10.302,6.563 14.763,10.685 9.818,9.071 17.256,20.679 21.243,33.793 8.294,1.928 14.495,9.361 14.495,18.252 C 18.745,-8.396 10.348,0 0,0"
             id="path168"
             style="fill:#176fbc;fill-opacity:1;fill-rule:nonzero;stroke:none" /></g></g></g><g
       id="g170"><g
         clip-path="url(#clipPath174)"
         id="g172"><g
           transform="translate(258.6475,595.4653)"
           id="g178"><path
             d="m 0,0 c -13.412,0 -26.006,-3.475 -36.955,-9.551 -5.36,-2.974 -10.328,-6.565 -14.796,-10.694 -11.834,-10.935 -20.198,-25.566 -23.245,-42.064 -7.68,-2.342 -13.264,-9.486 -13.264,-17.943 0,-10.348 8.397,-18.746 18.745,-18.746 10.366,0 18.765,8.398 18.765,18.746 0,6.508 -3.307,12.255 -8.357,15.623 5.42,27.715 29.81,48.616 59.107,48.616 33.28,0 60.258,-26.978 60.258,-60.257 0,-33.078 -26.655,-59.919 -59.656,-60.242 -0.202,-0.002 -0.401,-0.015 -0.602,-0.015 -7.833,0 -15.316,1.504 -22.187,4.23 -4.461,-4.122 -9.414,-7.715 -14.763,-10.686 10.941,-6.077 23.541,-9.558 36.95,-9.558 0.389,0 0.77,0.024 1.156,0.029 41.593,0.621 75.115,34.503 75.115,76.242 C 76.271,-34.142 42.129,0 0,0"
             id="path180"
             style="fill:#86cc64;fill-opacity:1;fill-rule:nonzero;stroke:none" /></g></g></g></g></svg>